<?xml version="1.0" standalone="no"?>
<!DOCTYPE svg PUBLIC "-//W3C//DTD SVG 20010904//EN"
 "http://www.w3.org/TR/2001/REC-SVG-20010904/DTD/svg10.dtd">
<svg version="1.0" xmlns="http://www.w3.org/2000/svg"
 width="566.000000pt" height="117.000000pt" viewBox="0 0 566.000000 117.000000"
 preserveAspectRatio="xMidYMid meet">

<g transform="translate(0.000000,117.000000) scale(0.100000,-0.100000)"
fill="#000000" stroke="none">
<path d="M2765 896 c-100 -25 -170 -83 -214 -176 -21 -46 -26 -69 -25 -140 0
-71 5 -94 28 -142 29 -62 82 -115 148 -149 65 -34 194 -38 271 -9 77 29 148
100 177 177 31 82 25 206 -13 279 -66 128 -227 198 -372 160z m147 -198 c29
-14 48 -64 48 -124 0 -50 -3 -59 -34 -90 -61 -61 -150 -41 -181 41 -48 124 55
231 167 173z"/>
<path d="M0 892 c0 -4 47 -147 103 -317 l104 -310 130 -3 130 -3 107 314 c58
173 106 317 106 321 0 3 -49 6 -109 6 l-108 0 -59 -200 c-33 -110 -62 -200
-65 -200 -3 0 -32 90 -65 200 l-59 200 -107 0 c-60 0 -108 -3 -108 -8z"/>
<path d="M817 878 c-3 -13 -9 -47 -13 -75 l-7 -53 132 0 131 0 0 75 0 75 -119
0 c-115 0 -119 -1 -124 -22z"/>
<path d="M1200 580 l0 -320 105 0 105 0 0 148 0 147 98 -147 97 -148 103 0
102 0 0 320 0 320 -105 0 -104 0 -3 -147 -3 -148 -95 148 -95 147 -102 0 -103
0 0 -320z"/>
<path d="M1890 580 l0 -320 145 0 c210 0 283 20 356 97 66 68 83 115 84 223 0
110 -19 163 -79 223 -76 76 -156 97 -373 97 l-133 0 0 -320z m322 114 c36 -19
58 -62 58 -114 0 -79 -54 -130 -139 -130 l-41 0 0 136 0 136 47 -7 c26 -4 60
-13 75 -21z"/>
<path d="M3230 581 l0 -321 105 0 105 0 0 103 1 102 52 -100 52 -100 113 -3
c61 -1 112 1 112 5 0 4 -29 59 -64 121 l-65 112 27 14 c114 59 136 235 41 323
-53 48 -92 57 -291 61 l-188 4 0 -321z m318 127 c7 -7 12 -21 12 -33 0 -33
-20 -45 -72 -45 l-48 0 0 45 0 45 48 0 c26 0 53 -5 60 -12z"/>
<path d="M3850 888 c1 -7 38 -150 84 -318 81 -296 84 -305 109 -308 29 -4 17
-35 146 383 42 137 50 156 58 135 5 -14 43 -136 84 -272 73 -245 74 -248 101
-248 24 0 29 6 39 43 6 23 44 162 85 309 41 148 74 273 74 279 0 6 -12 9 -27
7 -26 -3 -28 -9 -98 -278 l-72 -275 -20 65 c-11 36 -49 161 -83 278 -62 207
-64 212 -90 212 -26 0 -28 -5 -110 -277 -46 -152 -85 -272 -87 -267 -1 5 -32
122 -68 259 -36 138 -68 258 -71 268 -6 20 -54 24 -54 5z"/>
<path d="M5230 895 c0 -3 45 -90 100 -193 l100 -188 0 -127 0 -127 25 0 25 0
0 128 0 127 90 170 c93 176 105 215 70 215 -16 0 -37 -34 -102 -164 l-83 -165
-85 164 c-79 152 -87 165 -112 165 -16 0 -28 -2 -28 -5z"/>
<path d="M4793 582 c-62 -164 -113 -304 -113 -310 0 -7 11 -12 24 -12 21 0 28
10 54 78 l29 77 145 3 145 3 29 -78 c26 -69 33 -78 57 -81 15 -2 27 0 27 5 0
4 -51 143 -113 308 -111 296 -113 300 -142 303 l-30 3 -112 -299z m205 53 l59
-160 -120 -3 c-66 -1 -121 -1 -123 1 -2 2 14 53 37 113 22 60 50 133 61 162
11 29 22 52 23 50 2 -2 30 -75 63 -163z"/>
<path d="M797 653 c-3 -5 -8 -28 -12 -53 -3 -25 -9 -53 -11 -62 -5 -17 6 -18
140 -18 l146 0 0 70 0 70 -129 0 c-72 0 -132 -3 -134 -7z"/>
<path d="M767 407 c-3 -8 -8 -39 -12 -70 l-7 -57 156 0 156 0 0 70 0 70 -144
0 c-111 0 -145 -3 -149 -13z"/>
</g>
</svg>
