<?xml version="1.0" encoding="utf-8"?>
<!-- Generator: Adobe Illustrator 24.2.3, SVG Export Plug-In . SVG Version: 6.00 Build 0)  -->
<svg version="1.1" xmlns="http://www.w3.org/2000/svg" xmlns:xlink="http://www.w3.org/1999/xlink" x="0px" y="0px"
	 viewBox="0 0 135.6 27.84" style="enable-background:new 0 0 135.6 27.84;" xml:space="preserve">
<style type="text/css">
	.st0{fill:#EEEEEE;}
	.st1{fill:#FFFFFF;}
	.st2{fill:#E0E0FF;}
	.st3{fill:#5254CF;}
	.st4{opacity:0.4;fill:#E0E0FF;}
	.st5{fill:#FFB147;}
	.st6{fill:#1B1B43;}
	.st7{opacity:0.2;fill:#1B1B43;}
	.st8{fill:#FFBC96;}
	.st9{fill:#D28572;}
	.st10{opacity:0.4;fill:#FE5B52;}
	.st11{fill:#CBCBFF;}
	.st12{fill:#9192FF;}
	.st13{fill:#B0B0D2;}
	.st14{opacity:0.3;fill:#1B1B43;}
	.st15{fill:#925D4F;}
	.st16{fill:#FED3D1;}
	.st17{opacity:0.3;fill:#BE443D;}
	.st18{fill:#FE5B52;}
	.st19{fill:#BE443D;}
	.st20{fill:#393A8F;}
	.st21{opacity:0.4;fill:#FFFFFF;}
	.st22{fill:#086DB5;}
</style>
<g id="BACKGROUND">
</g>
<g id="OBJECTS">
</g>
<g id="DESIGNED_BY_FREEPIK">
	<g>
		<g>
			<path class="st22" d="M12.3,25.16l-5.9-8.54v8.54H0.21V2.71h6.18v8.37l5.41-8.37h7.12l-7.15,10.95l8.03,11.51H12.3z"/>
			<path class="st22" d="M17.1,13.96c0-6.74,5.56-11.85,12.8-11.85s12.8,5.11,12.8,11.85c0,6.69-5.56,11.77-12.82,11.77
				C22.64,25.73,17.1,20.65,17.1,13.96z M36.45,13.92c0-3.47-2.84-6.14-6.54-6.14s-6.54,2.67-6.54,6.14c0,3.45,2.84,6.12,6.54,6.12
				S36.45,17.37,36.45,13.92z"/>
			<path class="st22" d="M64.39,13.96c0,6.97-4.85,11.2-12.78,11.2h-7.61V2.72l7.61-0.01C59.55,2.68,64.39,6.94,64.39,13.96z
				 M58.19,13.95c0-3.52-2.55-5.67-6.73-5.67h-1.42v11.27h1.48C55.65,19.55,58.19,17.43,58.19,13.95z"/>
			<path class="st22" d="M78.49,22.54h-8.71l-1.19,2.62h-6.77L72.66,2.43h2.94l10.85,22.73h-6.79L78.49,22.54z M76.52,18.18
				l-2.39-5.32l-2.4,5.32H76.52z"/>
		</g>
		<path class="st22" d="M108.84,14.45c0,6.83-5.35,11.24-11.98,11.24c-7.41,0-13.01-5.32-13.01-11.73c0-6.41,5.61-11.8,12.85-11.8
			c2.97,0.04,6.4,1.25,8.32,2.97l-3.43,4.53c-1.3-1.17-3.17-1.92-4.89-1.92c-3.47,0-6.53,2.74-6.53,6.21c0,3.15,2.62,6.21,6.93,6.21
			c2.82,0,4.83-1.31,4.92-3.45h-5.34v-4.44h11.97C108.76,13.01,108.84,13.74,108.84,14.45z"/>
		<path class="st22" d="M135.38,13.96c0,6.69-5.56,11.77-12.82,11.77c-7.25,0-12.79-5.08-12.79-11.77 M129.12,13.92
			c0-3.47-2.84-6.14-6.54-6.14s-6.54,2.67-6.54,6.14c0,3.45,2.84,6.12,6.54,6.12S129.12,17.37,129.12,13.92z"/>
	</g>
</g>
</svg>
