<?xml version="1.0" encoding="UTF-8"?>
<svg xmlns="http://www.w3.org/2000/svg" xmlns:xlink="http://www.w3.org/1999/xlink" width="768pt" height="312.499988pt" viewBox="0 0 768 312.499988" version="1.2">
<defs>
<clipPath id="clip1">
  <path d="M 33 67.671875 L 759 67.671875 L 759 250.183594 L 33 250.183594 Z M 33 67.671875 "/>
</clipPath>
<clipPath id="clip2">
  <path d="M 33 67.671875 L 759 67.671875 L 759 250.449219 L 33 250.449219 Z M 33 67.671875 "/>
</clipPath>
<clipPath id="clip3">
  <path d="M 9 67.671875 L 735 67.671875 L 735 250.183594 L 9 250.183594 Z M 9 67.671875 "/>
</clipPath>
</defs>
<g id="surface1">
<g clip-path="url(#clip1)" clip-rule="nonzero">
<path style=" stroke:none;fill-rule:nonzero;fill:rgb(100%,100%,100%);fill-opacity:1;" d="M 635.523438 67.671875 L 439.480469 250.183594 L 562.292969 250.183594 L 758.339844 67.671875 Z M 432.359375 67.671875 L 236.316406 250.183594 L 359.128906 250.183594 L 555.175781 67.671875 Z M 229.195312 67.671875 L 33.152344 250.183594 L 155.964844 250.183594 L 352.007812 67.671875 Z M 229.195312 67.671875 "/>
</g>
<g clip-path="url(#clip2)" clip-rule="nonzero">
<path style=" stroke:none;fill-rule:nonzero;fill:rgb(36.079407%,88.238525%,90.19928%);fill-opacity:1;" d="M 635.476562 67.671875 L 439.445312 250.449219 L 562.25 250.449219 L 758.28125 67.671875 Z M 432.328125 67.671875 L 236.296875 250.449219 L 359.101562 250.449219 L 555.132812 67.671875 Z M 229.179688 67.671875 L 33.148438 250.449219 L 155.953125 250.449219 L 351.984375 67.671875 Z M 229.179688 67.671875 "/>
</g>
<g clip-path="url(#clip3)" clip-rule="nonzero">
<path style=" stroke:none;fill-rule:nonzero;fill:rgb(100%,100%,100%);fill-opacity:1;" d="M 612.144531 67.671875 L 416.101562 250.183594 L 538.914062 250.183594 L 734.960938 67.671875 Z M 408.980469 67.671875 L 212.9375 250.183594 L 335.75 250.183594 L 531.796875 67.671875 Z M 205.816406 67.671875 L 9.773438 250.183594 L 132.585938 250.183594 L 328.632812 67.671875 Z M 205.816406 67.671875 "/>
</g>
</g>
</svg>
