<svg xmlns="http://www.w3.org/2000/svg" xmlns:xlink="http://www.w3.org/1999/xlink" viewBox="0 0 435 435"><defs><style>.cls-1,.cls-11,.cls-7,.cls-9{fill:none;}.cls-2{isolation:isolate;}.cls-3{clip-path:url(#clip-path);}.cls-4{fill:url(#linear-gradient);}.cls-5{clip-path:url(#clip-path-2);}.cls-6{fill:url(#linear-gradient-2);}.cls-7{stroke:#f921e4;stroke-width:11.75px;}.cls-10,.cls-11,.cls-7,.cls-9{stroke-miterlimit:10;}.cls-10,.cls-8{mix-blend-mode:color-dodge;}.cls-9{stroke:#8c71de;}.cls-10,.cls-11,.cls-9{stroke-width:20px;}.cls-10{fill:#ff87bb;opacity:0.64;stroke:url(#linear-gradient-3);}.cls-11{stroke:#ff87bb;}</style><clipPath id="clip-path"><circle id="SVGID" class="cls-1" cx="-488.94" cy="217.5" r="216.87"/></clipPath><linearGradient id="linear-gradient" x1="-705.81" y1="217.5" x2="-272.07" y2="217.5" gradientUnits="userSpaceOnUse"><stop offset="0.02" stop-color="#33faff"/><stop offset="1" stop-color="#42f683"/></linearGradient><clipPath id="clip-path-2"><circle id="SVGID-2" data-name="SVGID" class="cls-1" cx="217.5" cy="217.5" r="216.87"/></clipPath><linearGradient id="linear-gradient-2" x1="0.63" y1="217.5" x2="434.37" y2="217.5" xlink:href="#linear-gradient"/><linearGradient id="linear-gradient-3" x1="106.31" y1="242.23" x2="421.97" y2="242.23" gradientUnits="userSpaceOnUse"><stop offset="0.02" stop-color="#33faff"/><stop offset="1" stop-color="#78f6af"/></linearGradient></defs><g class="cls-2"><g id="Layer_2" data-name="Layer 2"><g class="cls-3"><circle class="cls-4" cx="-488.94" cy="217.5" r="216.87"/></g><g class="cls-5"><circle class="cls-6" cx="217.5" cy="217.5" r="216.87"/><polygon class="cls-7" points="94.2 131.09 216.98 64.2 340.2 130.3 217.43 198.04 94.2 131.09"/><polygon class="cls-7" points="95.79 302.87 217.56 235.98 339.79 302.07 218.01 369.81 95.79 302.87"/><line class="cls-7" x1="88.85" y1="302.73" x2="88.27" y2="130.96"/><line class="cls-7" x1="346.73" y1="301.88" x2="346.15" y2="130.11"/><line class="cls-7" x1="218.08" y1="370.79" x2="217.5" y2="199.02"/><g class="cls-8"><polygon class="cls-9" points="351.33 -86.46 448.14 12.51 585.5 -10.99 520.19 111.51 584.5 233.89 447.33 210.62 349.71 309.76 330.25 172.88 205.61 111.77 330.75 50.45 351.33 -86.46"/><polyline class="cls-9" points="331.93 175.53 356.71 141.16 253.79 90.05"/><polyline class="cls-9" points="347.15 -32.39 430.15 47.56 448.14 12.51"/><line class="cls-9" x1="569.49" y1="26.26" x2="431.69" y2="52.34"/><path class="cls-9" d="M380.7,277.09c-1.16-3.58-18.38-138.1-18.38-138.1"/></g><line class="cls-10" x1="114.12" y1="430.09" x2="414.16" y2="54.37"/><g class="cls-8"><polyline class="cls-11" points="116.72 59.44 46.51 59.44 46.51 458.44"/><path class="cls-11" d="M116.72,175.47c29.05,0,52.59-26,52.59-58s-23.54-58-52.59-58"/><line class="cls-11" x1="46.51" y1="175.47" x2="116.72" y2="175.47"/><path class="cls-11" d="M104.72,175.47c14.84,0,24.09,5.14,33.87,14.32s247.3,228.55,247.3,228.55"/><path class="cls-11" d="M44.53,169.47c16.49,13.15,313.16,292,313.16,292"/></g><circle id="SVGID-3" data-name="SVGID" class="cls-1" cx="217.5" cy="217.5" r="216.87"/></g></g></g></svg>