<svg xmlns="http://www.w3.org/2000/svg" viewBox="0 0 670.95 328.85"><defs><style>.cls-1{fill:#fff;}.cls-2{fill:#c8102e;}.cls-3{fill:#1d428a;}</style></defs><g id="Layer_2" data-name="Layer 2"><g id="Layer_1-2" data-name="Layer 1"><path class="cls-1" d="M274.49,29.79h-30L205.21,156.66h-33L210.9,29.79H179.77l9-29.79h95.05Z"/><path class="cls-1" d="M297.39,0h96.38L342.7,156.66H248.11Zm-6.88,127h28.92l31.3-97.19H321.46Z"/><path class="cls-1" d="M389.93,156.66H357.1L401.21,22.1,432.64,0h68.44l-39.6,116.9H403.12Zm48.61-69.77,19.12-57.1H432l-18.94,57.1Z"/><path class="cls-1" d="M282,328.85h-92.4l15.85-49.31h32.34l-6.69,19.29h29.14L270.43,273l-49.24-41.28,20.7-61.32H337l-16.64,47.12H288.77l5.9-16.88h-30.5L257,222.42l47.79,40.69Z"/><path class="cls-1" d="M363.09,235.5H391.9l23.59-65.09h33.83L391.26,328.85h-33.2l23-63.33H352.31l-22.73,63.33h-33.2l56.25-158.44h33.83Z"/><path class="cls-1" d="M463.72,170.41H561.2L501.05,328.85H405.4ZM449.88,298.83h29.25l36.92-98.29h-29.6Z"/><path class="cls-1" d="M659.12,200.54H628.74L578.82,328.85H545.4l49.41-128.31H563.33l11.49-30.13H671Z"/><path class="cls-1" d="M111,0H34A34.08,34.08,0,0,0,0,34V294.76a34.1,34.1,0,0,0,34,34.09H111a34.17,34.17,0,0,0,34.12-34.09V34A34.1,34.1,0,0,0,111,0"/><path class="cls-2" d="M91.94,60.29,92,61.4c2.35,1.37,3.54,2.48,5.9,4,6.28,4,14,11,13,35.19,1.76,5.28,2.54,15.66,4.17,19,3.27,6.49,5.45,10.71,6.4,16.83,0,0,1,9.53,2.18,10.22,6.49,1.46,4.61,2.1,5.56,3.21,1,1.31,4.76,1.25,4.76,4.74a23.09,23.09,0,0,1,3,5.43V34A26,26,0,0,0,111,8H86.16c4,1.41,6.25,3.09,7.57,5.75,3.21.28,7,7.48,1.08,18.11,2.64,1.76.58,4.38-1.31,7.43-.56,1-1.16,2.7-2.92,2.59-2.26,4.75-5,9.36-7,9.65-.62.77-1.08,2.81-.14,3.77,3,1.36,6.72,3.22,8.55,5"/><path class="cls-2" d="M137,177.07A23.22,23.22,0,1,1,110,145.93c-2.68-6.69-8.32-17.54-10-21.1s-5.41-25.59-6.23-30c-.19-1-10,5.7-10,6.11-.58.56-7.37,18.3-7.66,19.26a29.23,29.23,0,0,0-.15,3s3.34.41,5.27,6.24,7.7,27.07,7.7,27.07a13.9,13.9,0,0,1-1.64,1.53c7.33,24.53,4.77,35.09,8.06,42.28,4.13,10.14,5.24,8.81,8.79,17.33,2.54,6.21,5.38,30.63,6.33,31.72,3.95,5,6.08,8.93,6.08,11.76s-3.35,11.26-2.13,16.16c.75,2.88,1.13,9.34,2.48,10.57,0,0,1.23,2.43.62,3.5-.17.38-.52.94-.37,1.38,2.19,7.71,9.23,20.84-2.18,27.72h.25A25.83,25.83,0,0,0,137,294.76Z"/><path class="cls-3" d="M107.73,289.77c-4.19-3.74-1.39-5.31-1.56-6.79-2.76-11.39-11.8-18.27-7.12-22-1.16-3.76-3.51-8.49-3.42-8.48-14.1-8.09-26.1-21.24-28.14-23.17-2.48-2.69-6.69-5.39-7.48-7.57-3.39-3.11-20-26.69-23.88-35.37l-6.74-1c-3.07-12.53-13.31-23-13.56-35.6-.1-4.75,2.15-14.93,3-17s4.74-5.44,4.74-5.44v-3.36c-14.71.42-10.48-1.08-13-6.8-1.78-4-.5-4.83.14-7.58,2-8.11,8.53-20.61,11.25-26.29.82-2.87,3.66-9.78,3.66-9.78,11-22.33,15.06-20.69,28.08-21.95l.64-.92c13-.57,10.92-1.55,12.76-14.12-1.9.81-2.47-3.94-2.47-3.94-1-7.15,2-5.8,3.41-5.94C68.32,15,69.53,11.27,78,8h-44a26,26,0,0,0-26,26V294.76a26,26,0,0,0,26,26h77C102.22,316,107.43,307,107.73,289.77Z"/><path class="cls-1" d="M48.62,304.42v-47.2h9.15c5.3,0,8.57,2.84,8.57,9.45v7c0,4.29-1.3,6.48-3.14,7.54,1.84,1.25,3.14,3.37,3.14,6.94V295c0,6.48-3.47,9.39-8.57,9.39Zm6.28-20.5v14.55h2.41c2.16,0,2.75-1.13,2.75-3.37v-8c0-2.32-.72-3.18-2.81-3.18Zm0-20.75v15.6h2.35c2.22,0,2.81-.8,2.81-3.37v-9.06c0-2.18-.65-3.17-2.75-3.17Zm26.23,31.66H75.44l-.79,9.59H68.3l5.7-47.2h9l5.5,47.2H81.91Zm-2.82-32.32H78c-.4,5.68-1.18,15.66-1.44,18.84l-.72,8.13h4.9L80,281.35c-.26-3.24-1.17-13.09-1.7-18.84m-48.4,41.91h-5.5v-47.2h8.7l7,38.67c-.59-9.25-1.37-20.42-1.37-29.95v-8.72h5.49v47.2h-8l-7-37.82c.46,8.73.66,15.67.66,22.95Z"/></g></g></svg>