<svg width="50" height="50" fill="none" xmlns="http://www.w3.org/2000/svg"><mask id="a" maskUnits="userSpaceOnUse" x="0" y="0" width="50" height="50"><path d="M.014 0h49.894v49.9H.014V0z" fill="#fff"/></mask><g mask="url(#a)" fill-rule="evenodd" clip-rule="evenodd"><path d="M25.794.822A24.011 24.011 0 008.201 7.57 24.02 24.02 0 00.83 24.113 23.985 23.985 0 007.306 41.42a23.986 23.986 0 0016.816 7.658 24.011 24.011 0 0017.593-6.749 24.02 24.02 0 007.371-16.543A23.985 23.985 0 0042.611 8.48 23.986 23.986 0 0025.794.822z" fill="#A08A56"/><path d="M49.085 25.786a24.02 24.02 0 01-7.371 16.544 24.011 24.011 0 01-17.593 6.748A23.986 23.986 0 017.304 41.42 23.985 23.985 0 01.828 24.114 24.02 24.02 0 018.199 7.57 24.011 24.011 0 0125.792.822 23.986 23.986 0 0142.61 8.48a23.985 23.985 0 016.476 17.306zM43.199 7.929C38.652 3.057 32.48.246 25.82.015A24.814 24.814 0 007.64 6.99 24.822 24.822 0 00.021 24.087c-.231 6.66 2.146 13.012 6.692 17.885a24.785 24.785 0 0017.379 7.914 24.814 24.814 0 0018.181-6.974 24.821 24.821 0 007.617-17.097 24.786 24.786 0 00-6.692-17.885z" fill="#1B1A19"/></g><path fill-rule="evenodd" clip-rule="evenodd" d="M48.044 25.75c-.441 12.75-11.136 22.728-23.886 22.286C11.408 47.595 1.43 36.9 1.872 24.15 2.314 11.4 13.008 1.422 25.758 1.864 38.508 2.305 48.486 13 48.044 25.75z" fill="#0A0B09"/><path fill-rule="evenodd" clip-rule="evenodd" d="M5.09 23.844l.052-.483 1.469-.7-.006-.007-1.374-.123.057-.536 2.193.234-.052.486-1.423.693.003.006 1.331.127-.057.537-2.192-.234zM7.239 19.92l.134-.442-.788-.002v.003l-.002.006.656.435zm.383.278l.271.204-.175.579-1.854-1.487.128-.424 2.365-.2-.177.585-.336.01-.222.733zM7.419 16.778l-.191.39-.445-.217.628-1.285.445.217-.19.389 1.537.75-.247.507-1.537-.751zM8.214 14.314l.31-.47 1.842 1.212-.31.47-1.842-1.212zM11.598 12.773c.269-.294.131-.683-.078-.873-.211-.193-.612-.298-.886.002-.263.288-.16.669.07.878.25.23.638.273.893-.007zm-1.33-1.203a1.143 1.143 0 111.687 1.546 1.136 1.136 0 01-1.607.102 1.244 1.244 0 01-.29-.382 1.146 1.146 0 01.21-1.266zM12.412 9.57l.391-.288 1.51.61v-.009l-.838-1.096.434-.32 1.31 1.774-.394.29-1.472-.58-.003.006.806 1.069-.434.32-1.31-1.775zM16.754 8.503l.415-.201-.531-.58h-.003l-.005.003.124.778zm.054.47l.034.337-.545.263-.16-2.37.4-.193 1.746 1.605-.55.266-.235-.241-.69.333zM18.88 6.081l.54-.16.484 1.641.626-.184.14.474-1.166.344-.624-2.115z" fill="#FFFFFE"/><path fill-rule="evenodd" clip-rule="evenodd" d="M24.995 5.957l.2.002c.077.001.238.003.24-.173.002-.167-.15-.168-.237-.17l-.2-.001-.003.342zm-.009.873l.265.003c.072 0 .28.003.282-.208.002-.191-.188-.193-.278-.194l-.265-.003-.004.402zm-.521-1.716l.679.008c.373.004.545.041.704.222a.509.509 0 01.127.365.498.498 0 01-.26.44.507.507 0 01.357.517c-.002.176-.072.369-.207.478-.205.167-.35.187-.723.183l-.7-.008.023-2.205zM28.212 6.84l.454.085-.082-.783h-.003l-.006-.002-.363.7zm-.235.41l-.174.291-.595-.112 1.28-2.003.437.083.45 2.33-.6-.114-.046-.333-.752-.143zM31.947 7.06c.014-.074.047-.211-.115-.272-.092-.034-.205-.004-.242.094-.046.123 0 .169.308.475.32.318.351.533.261.773-.113.301-.41.568-.957.363-.597-.224-.599-.67-.5-.935l.026-.067.524.197c-.09.24.043.337.11.362a.213.213 0 00.275-.122c.051-.137-.023-.203-.29-.456-.124-.113-.43-.393-.284-.781.146-.388.605-.467.951-.337.204.076.396.234.47.443a.664.664 0 01-.016.46l-.522-.197zM34.282 7.402l.488.281-.496.86.005.003 1.036-.548.51.295-1.181.587.12 1.347-.57-.33-.045-1.127-.005-.003-.477.826-.487-.281 1.102-1.91zM37.185 9.272l.947.776-.313.383-.53-.435-.218.265.514.422-.313.382-.514-.42-.24.292.53.434-.313.383-.948-.777 1.398-1.705zM39.191 11.77l-.292-.321.366-.333.962 1.058-.366.333-.291-.32-1.266 1.15-.379-.416 1.266-1.15zM40.822 14.367l.11.166c.042.065.13.2.277.103.14-.091.056-.218.009-.29l-.11-.168-.286.189zm-.73.48l.145.22c.04.06.154.235.33.119.16-.105.056-.264.007-.34l-.146-.22-.336.22zm1.133-1.391l.374.568c.204.311.27.475.208.708a.51.51 0 01-.232.31.498.498 0 01-.512.029.508.508 0 01-.229.585c-.147.097-.346.146-.512.094-.254-.076-.35-.187-.556-.498l-.384-.585 1.843-1.211zM41.884 17.526l.182.425.604-.506-.002-.003-.002-.005-.782.09zm-.472.034l-.338.02-.24-.556 2.376-.058.175.408-1.68 1.675-.241-.56.25-.225-.302-.704zM44.212 19.759l.136.547-1.66.41.156.634-.48.12-.292-1.18 2.14-.531zM44.768 22.523l.057.56-1.702.175.067.65-.493.05-.123-1.21 2.194-.225zM6.538 27.635l.036.222c.017.104.055.34.315.299.254-.041.215-.284.196-.402l-.032-.202-.515.083zm.916-.684l.112.698c.064.396.026.553-.052.684a.75.75 0 01-.532.344c-.22.035-.465-.017-.603-.134-.15-.127-.234-.261-.288-.593l-.038-.237-.678.11-.084-.523 2.163-.349zM8.043 29.803l.17.526-1.618.522.197.61-.467.15-.367-1.135 2.085-.672zM7.913 33.366l.207.403.565-.539-.001-.003-.003-.005-.768.144zm-.465.067l-.334.043-.27-.529 2.346-.225.199.387-1.559 1.765-.273-.534.234-.238-.343-.669zM9.5 35.94l.74-1.348.354.483-.517.78.9-.26.352.479-1.502.31-.642.472-.327-.445.641-.472zM12.173 37.008l.854.846-.346.349-.478-.473-.24.242.464.459-.346.349-.463-.459-.265.267.478.473-.346.35-.854-.846 1.542-1.557zM13.857 39.955l.159.115c.263.19.415.044.477-.042.116-.161.057-.325-.116-.45l-.163-.117-.357.494zm.215-1.203l.555.4c.308.223.399.347.449.518a.763.763 0 01-.134.641c-.148.204-.469.429-.84.245l.04.949-.512-.37.008-.867-.004-.003-.414.574-.43-.31 1.282-1.777zM16.995 41.328c.023-.072.07-.204-.08-.28-.087-.044-.201-.025-.248.067-.059.116-.019.167.248.5.277.347.283.562.167.79-.144.284-.465.517-.977.258-.558-.283-.509-.723-.382-.974l.032-.063.491.248c-.115.227.003.337.066.369a.21.21 0 00.283-.093c.065-.129 0-.202-.233-.479-.107-.124-.374-.432-.188-.799.186-.367.644-.397.967-.234.19.097.36.273.41.486a.667.667 0 01-.068.45l-.488-.246z" fill="#A08A56"/><path fill-rule="evenodd" clip-rule="evenodd" d="M20.513 43.455l.442.105-.044-.78h-.003l-.006-.002-.389.677zm-.25.398l-.184.282-.578-.137 1.35-1.932.425.1.332 2.33-.584-.138-.03-.332-.73-.174zM24.158 43.205c-.007-.074-.016-.214-.185-.225-.097-.007-.194.055-.201.159-.008.13.048.16.425.362.391.21.481.406.465.66-.02.319-.224.659-.796.622-.625-.04-.753-.464-.735-.745l.005-.07.548.034c-.016.255.136.309.206.314a.21.21 0 00.223-.197c.01-.144-.078-.186-.402-.35-.148-.071-.514-.249-.488-.66.026-.41.436-.619.797-.595.213.014.439.108.568.286a.668.668 0 01.115.44l-.545-.035zM26.967 43.14c-.019-.073-.048-.21-.217-.195-.097.008-.184.084-.174.188.011.13.072.15.475.293.418.147.537.326.56.58.028.318-.121.685-.692.736-.623.056-.814-.343-.84-.623l-.006-.07.548-.05c.023.254.18.284.25.278a.21.21 0 00.192-.228c-.013-.145-.107-.172-.451-.284-.157-.048-.547-.168-.583-.578-.037-.41.335-.677.696-.71.213-.018.45.04.605.196a.666.666 0 01.181.418l-.544.048zM30.213 43.655c.378-.102.467-.5.393-.772-.074-.274-.352-.576-.736-.472-.37.1-.484.474-.403.771.088.326.387.57.746.473zm-.474-1.718a1.13 1.13 0 011.4.799c.16.589-.16 1.221-.81 1.396a1.122 1.122 0 01-1.387-.774 1.124 1.124 0 01.797-1.42zM34.6 41.478a1.112 1.112 0 01-.597 1.258 1.133 1.133 0 01-1.529-.513c-.249-.501-.122-1.205.512-1.52a1.11 1.11 0 011.373.292l-.518.258c-.128-.118-.372-.242-.639-.109-.333.165-.372.552-.234.83.147.297.489.485.81.325.31-.154.305-.479.302-.563l.52-.258zM35.089 39.513l.45-.32 1.27 1.785-.45.32-1.27-1.785zM38.161 38.858l.325-.316-.681-.382-.002.002-.004.004.362.692zm.2.425l.14.306-.425.414-.905-2.176.312-.304 2.143.971-.43.418-.295-.154-.54.524zM39.391 36.088l-.253.343-.396-.292.834-1.13.395.293-.251.34 1.367 1.01-.328.445-1.368-1.01zM40.26 33.885l.273-.48 1.904 1.08-.273.481-1.904-1.081zM43.154 31.762c.134-.368-.141-.67-.406-.765-.267-.097-.674-.042-.81.332-.13.36.111.668.4.773.318.115.69.01.816-.34zm-1.679-.598a1.13 1.13 0 011.459-.688c.573.208.908.832.679 1.464-.232.641-.903.884-1.432.692a1.253 1.253 0 01-.411-.238 1.125 1.125 0 01-.295-1.23zM42.204 28.833l.071-.471 1.487-.621-.005-.007-1.359-.182.08-.524 2.166.329-.073.474-1.44.616.002.006 1.316.185-.08.523-2.165-.328z" fill="#FFFFFE"/><path fill-rule="evenodd" clip-rule="evenodd" d="M32.123 21.626s-1.676-2.076-2.055-2.439c0 0 2.12-1.977 5.713-4.103 0 0 3.016 2.818 3.741 7.531 0 0-2.95-3.938-7.4-.989zm-3.906 7.944c-.682 6.085-1.714 7.811-3.939 10.267 0 0-6.13-.116-10.184-4.714 0 0 4.976-6.46 10.135-10.959 0 0 4.235-3.856 5.158-4.499 0 0 1.486 1.514 2.158 2.375 0 0-2.653 1.498-3.328 7.53zm-1.335-13.761s-4.637-3.752-9.394-3.329c0 0 2.258-1.978 7.614-2.043 0 0 1.434-.05 2.456.164 0 0 2.34 2.555-.676 5.208zm8.435-1.302s-3.118 1.725-5.765 4.054c0 0-1.039-1.296-2.087-2.11 0 0 2.878-2.153.746-5.745 0 0 .434.01.846.077 0 0-7.267-2.588-13.678 2.9 0 0 1.104-.758 1.269-.807 0 0 5.279-.676 9.509 3.587 0 0-1.319 1.703-6.576 2.428-6.292.868-8.124 2.34-9.047 3.362 0 0 .214-1.945.51-2.571 0 0-.807 1.318-1.005 4.581 0 0 .495-2.043 3.857-3.246 0 0 2.093-.71 5.718-1.27 3.626-.56 5.537-1.471 7.17-2.724 0 0 1.35 1.134 2.076 2.049 0 0-9.636 7.718-15.272 15.464 0 0-.571-.286-1.34-1.495 0 0 2.801 5.906 10.767 7.076 0 0 3.867.637 7.36-.923 0 0-2.757.879-5.366.66 0 0 1.756-1.66 2.664-4.637 1.582-5.186 1.187-10.426 4.417-12.481 0 0 3.439 3.873 4.108 7.822 0 0 .374 2.22-.043 4.285 0 0-.528.967-.747 1.165 0 0 1.845-1.846 2.988-4.065 0 0-1.033 1.538-1.385 1.824-.351.285 1.495-4.33-4.306-11.492 0 0 1.516-1.429 3.955-1.011 2.519.43 3.318 3.01 3.318 3.01s.104-6.603-5.867-11.03c0 0 .843.79 1.206 1.263z" fill="#A08A56"/></svg>